<svg fill="none" height="100%" width="100%" viewBox="0 0 1080 1080" xmlns:xlink="http://www.w3.org/1999/xlink" xmlns="http://www.w3.org/2000/svg"><g id="i0"><g transform="translate(546.25,963.323)"><g transform="scale(0.5,0.5)"><animateTransform repeatCount="indefinite" type="scale" attributeName="transform" dur="1.64s" begin="0s" calcMode="spline" values="0.5 0.5; 1 1; 0.5 0.5; 0.5 0.5" keyTimes="0; 0.487805; 0.97561; 1" keySplines="0.42 0 0.58 1; 0.42 0 0.58 1; 0 0 1 1" fill="freeze" /><g transform="translate(-6.25,-423.323)"><g id="i1"><path fill="#505a6a" d="M73.401,405.992C58.059,403.988,35.114,404.874,19.085,404.894C3.208,404.912,-20.077,404.101,-35.214,406.005C-51.776,403.229,-107.99,410.816,-129.174,413.657C-139.597,415.055,-151.697,414.45,-153.148,425.434C-111.784,442.172,-36.765,442.011,6.735,441.956C30.851,441.923,137.238,439.961,162.23,426.907C164.783,425.571,164.198,425.882,165.649,424.327C157.894,408.119,80.624,404.786,73.401,405.992" /></g></g></g></g></g><g id="i2"><g transform="translate(540,453.505)"><animateTransform repeatCount="indefinite" type="translate" attributeName="transform" dur="1.64s" begin="0s" calcMode="spline" values="540 453.505; 540 533.505; 540 453.505; 540 453.505" keyTimes="0; 0.487805; 0.97561; 1" keySplines="0.42 0 0.58 1; 0.42 0 0.58 1; 0 0 1 1" fill="freeze" /><g transform="scale(1,1) translate(0,6.495)"><g id="i3"><path fill="#030401" d="M-65.203,-313.782C-63.558,-299.111,-55.653,-287.48,-48.116,-280.776C-33.467,-267.746,-29.779,-269.46,-17.723,-262.491C-17.723,-262.491,-17.495,-228.982,-17.495,-228.982C-17.495,-228.982,-20.884,-228.397,-20.884,-228.397C-105.894,-216.189,-226.779,-269.831,-260.416,-123.974C-358.471,-96.258,-324.457,-7.633,-280.754,7.919C-263.057,14.216,-261.381,4.759,-258.437,30.153C-257.83,35.397,-256.113,36.742,-254.012,40.994C-239.359,70.667,-232.28,87.927,-198.238,104.95C-187.868,110.136,-176.711,113.771,-165.009,116.342C-165.009,116.342,-152.481,119.393,-152.481,119.393C-154.345,123.305,-160.62,128.703,-167.006,137.538C-171.722,144.063,-176.065,150.399,-180.67,157.136C-183.305,160.993,-184.36,162.797,-186.569,167.365C-188.544,171.442,-191.577,173.899,-193.07,177.027C-195.57,182.262,-204.129,227.007,-206.177,229.472C-208.145,231.842,-217.466,233.929,-225.537,243.363C-230.472,249.135,-234.211,257.614,-234.142,267.58C-234.109,272.486,-233.698,278.845,-233.369,283.793C-233.044,288.657,-229.902,291.316,-225.694,293.171C-222.582,289.602,-208.907,269.003,-207.442,263.313C-196.12,265.517,-188.239,273.82,-179.324,277.626C-182.465,292.18,-193.991,298.075,-196.721,311.752C-185.653,312.026,-178.488,310.645,-170.483,306.02C-165.025,302.866,-158.997,295.727,-156.198,288.944C-149.152,271.872,-155.719,269.312,-141.726,256.868C-141.726,256.868,-135.705,251.472,-135.705,251.472C-133.196,249.325,-135.33,250.548,-132.909,249.565C-126.11,259.171,-118.213,291.208,-100.086,313.625C-95.849,318.864,-96.978,320.523,-94.489,324.117C-93.385,325.712,-88.161,328.51,-85.385,331.196C-74.206,342.013,-66.557,351.143,-49.238,359.68C5.321,386.572,55.859,368.394,91.376,329.409C125.782,291.648,128.369,259.899,137.836,245.939C161.567,256.539,160.263,277.783,163.488,286.552C170.053,304.394,187.443,311.592,205.588,311.961C202.982,298.655,190.378,291.252,189.015,278.984C194.848,273.764,206.421,265.471,215.726,263.233C218.147,266.164,222.397,274.856,224.652,278.604C227.727,283.717,232.018,288.82,234.501,293.297C234.501,293.297,241.22,290.141,241.22,290.141C242.91,269.058,245.813,252.399,231.798,240.114C223.38,232.734,215.402,232.39,213.882,226.753C207.371,202.591,207.925,183.701,189.225,155.396C184.518,148.272,180.89,143.723,175.964,137.315C173.645,134.293,171.043,131.265,168.673,128.427C165.795,124.984,162.842,123.815,161.492,119.466C186.235,110.604,200.623,109.047,220.387,94.608C259.71,65.88,263.33,17.139,265.252,14.078C267.238,10.911,275.759,9.176,279.545,7.475C304.447,-3.708,322.859,-17.727,323.86,-53.291C324.308,-99.263,300.696,-107.832,270.363,-122.386C262.029,-126.384,262.751,-133.496,260.355,-143.743C258.215,-152.898,255.933,-158.04,251.986,-165.738C245.209,-178.96,234.837,-191.545,225.235,-199.782C199.41,-221.936,174.18,-226.934,131.181,-228.326C110.606,-228.993,90.016,-228.831,69.434,-228.615C50.043,-228.412,27.69,-226.847,8.67,-228.017C8.67,-228.017,8.657,-261.721,8.657,-261.721C27.308,-272.102,32.611,-270.406,45.309,-285.675C73.992,-320.174,57.2,-389.53,-11.308,-385.252C-32.033,-381.639,-42.194,-375.504,-52.577,-363.605C-61.375,-353.522,-69.13,-332.241,-65.203,-313.782M-38.746,-346.339C-37.657,-351.344,-35.793,-352.548,-33.094,-355.519C-27.87,-361.269,-30.965,-358.046,-24.102,-360.389C-21.431,-364.475,-15.43,-366.287,-10.584,-367.082C33.742,-374.349,55.537,-319.507,25.497,-292.171C-2.296,-266.876,-41.445,-286.351,-46.634,-316.435C-48.582,-327.737,-46.077,-338.001,-38.746,-346.339ZM-119.36,-207.4C-104.535,-211.813,101.814,-209.083,119.277,-208.535C119.277,-208.535,118.427,-125.072,118.427,-125.072C101.466,-121.337,-108.277,-121.683,-119.197,-125.984C-119.197,-125.984,-119.36,-207.4,-119.36,-207.4ZM-183.872,-114.576C-193.147,-93.014,-190.333,-69.479,-190.289,-44.95C-190.267,-32.446,-191.977,21.042,-189.26,27.688C-184.659,27.202,-188.003,26.544,-184.206,28.669C-183.926,23.761,-183.064,22.78,-180.409,20.602C-179.921,23.681,-179.11,27.195,-178.505,30.1C-172.411,26.789,-174.37,26.418,-171.867,23.452C-169.594,4.916,-171.868,-20.896,-172.462,-40.181C-172.802,-51.274,-173.1,-62.395,-172.528,-73.488C-172.097,-81.888,-169.12,-96.914,-169.44,-103.021C-168.4,-108.057,-165.961,-110.333,-160.667,-112.042C-153.389,-114.39,-134.173,-113.003,-133.857,-113.021C-111.151,-114.329,-16.245,-113.948,0.087,-112.172C8.107,-111.297,14.691,-111.594,22.921,-111.49C27.321,-111.435,28.907,-110.598,33.269,-110.472C51.94,-109.933,48.413,-112.411,66.582,-112.393C81.089,-112.378,148.835,-113.204,155.687,-111.921C156.688,-111.733,157.392,-111.496,158.039,-111.386C161.368,-110.818,168.671,-109.233,170.61,-112.102C172.642,-115.102,171.405,-112.762,171.082,-116.192C171.393,-115.794,173.479,-115.523,170.932,-115.823C170.932,-115.823,156.875,-120.274,156.875,-120.274C150.408,-121.041,149.462,-119.976,146.379,-119.404C139.267,-118.088,141.871,-120.358,135.929,-120.941C135.889,-126.918,134.034,-125.102,134.034,-141.845C134.034,-161.923,135.519,-153.567,136.588,-163.807C137.253,-170.184,135.216,-168.167,134.918,-175.094C134.918,-175.094,134.962,-197.891,134.962,-197.891C134.938,-203.247,135.654,-205.101,135.934,-209.289C137.513,-210.608,136.681,-209.421,139.148,-209.713C156.536,-208.264,177.649,-206.996,193.217,-199.135C198.308,-196.564,201.811,-193.414,204.844,-189.155C209.44,-190.014,213.999,-184.406,216.853,-181.928C219.68,-179.47,224.329,-176.07,224.018,-170.716C224.018,-170.716,228.378,-167.763,228.378,-167.763C229.957,-166.44,230.302,-166.03,231.665,-164.426C234.031,-161.645,234.868,-160.18,236.507,-156.918C239.586,-150.775,241.348,-144.933,242.718,-137.558C247.186,-113.489,246.508,-14.666,245.66,10.183C245.114,26.183,241.542,36.868,234.832,49.195C213.829,87.785,180.761,100.088,134.03,99.606C67.336,98.917,0.33,99.978,-66.411,100.055C-85.493,100.077,-149.939,100.949,-164.742,97.954C-189.997,92.845,-216.795,74.605,-223.969,55.751C-238.812,52.639,-242.014,-2.873,-242.668,-21.164C-243.786,-52.469,-243.123,-85.015,-241.458,-116.172C-239.256,-157.339,-214.526,-188.055,-181.206,-201.544C-171.565,-205.447,-151.317,-210.751,-139.891,-208.206C-139.891,-208.206,-139.792,-123.859,-139.792,-123.859C-149.106,-123.828,-156.251,-125.888,-165.899,-123.545C-177.471,-120.735,-178.684,-114.576,-183.872,-114.576ZM264.355,-102.105C285.983,-104.471,305.757,-76.957,305.196,-54.423C304.666,-33.232,285.354,-6.022,264.684,-8.505C264.684,-8.505,264.364,-92.448,264.364,-92.448C264.364,-92.448,264.355,-102.105,264.355,-102.105ZM-263.439,-7.915C-286.368,-9.764,-304.163,-30.628,-304.084,-55.402C-304.004,-79.897,-286.506,-100.647,-263.683,-102.725C-263.683,-102.725,-263.439,-7.915,-263.439,-7.915ZM151.002,134.47C168.259,142.092,197.287,199.018,197.358,228.324C187.502,230.882,182.195,235.295,174.879,237.38C171.548,239.699,168.86,244.227,167.515,247.964C161.065,246.153,151.389,235.588,148.04,230.78C140.596,220.109,143.967,214.183,145.458,201.063C148.228,176.651,144.109,138.826,145.723,130.269C145.723,130.269,151.002,134.47,151.002,134.47ZM-142.241,199.068C-140.565,203.669,-137.298,224.823,-139.105,230.042C-141.124,235.871,-151.739,245.234,-157.608,247.156C-161.158,244.203,-161.954,240.288,-165.446,237.481C-174.438,234.665,-176.957,230.358,-188.551,228.834C-186.722,192.555,-162.043,148.138,-142.429,135.285C-142.389,145.803,-143.131,156.354,-143.164,166.888C-143.197,177.057,-141.775,189.685,-142.241,199.068ZM-118.706,121.502C-118.706,121.502,-113.209,119.079,-113.209,119.079C-102.26,116.912,-72.803,118.295,-61.662,118.56C-23.532,119.466,22.662,118.607,61.833,118.671C81.99,118.704,102.8,117.745,122.617,119.415C122.617,119.415,123.832,122.264,123.832,122.264C129.557,133.321,130.103,164.249,129.237,178.319C124.707,251.887,82.678,358.708,-4.664,352.897C-22.412,351.717,-37.997,344.616,-50.216,336.863C-59.652,330.877,-77.141,315.425,-81.084,305.417C-86.432,299.292,-88.101,300.35,-94.065,289.542C-97.396,283.51,-100.651,276.444,-103.558,269.588C-109.018,256.713,-114.996,240.213,-118.256,225.399C-121.77,209.443,-123.535,189.495,-124.39,172.611C-124.989,160.765,-125.746,137.445,-121.772,125.749C-121.326,124.435,-121.32,124.131,-120.615,123.141C-118.718,120.471,-120.608,122.43,-118.706,121.502Z" /></g><g id="i4"><path fill="#030401" d="M-145.426,-93.879C-153.936,-92.386,-158.145,-88.558,-159.395,-80.041C-160.603,-71.809,-160.187,-60.983,-160.015,-52.55C-158.502,21.573,-169.244,24.042,-125.309,24.006C-125.309,24.006,39.984,23.551,39.984,23.551C67.375,23.48,128.042,24.503,151.106,23.215C157.816,22.842,156.869,21.818,159.491,18.564C162.279,15.105,160.312,19.381,162.556,14.981C163.402,13.322,163.733,10.787,163.952,8.6C165.653,-8.494,165.045,-56.979,164.164,-73.492C163.959,-77.307,163.997,-81.676,162.433,-84.755C162.433,-84.755,160.259,-88.253,160.259,-88.253C158.567,-91.321,159.462,-91.462,156.206,-92.781C149.714,-95.412,84.834,-94.155,75.133,-94.155C60.782,-94.155,-137.07,-95.346,-145.426,-93.879" /></g><g id="i5"><path fill="#050301" d="M-169.44,-103.021C-131.164,-108.103,98.155,-107.064,153.065,-104.517C156.352,-104.365,168.257,-104.062,171.144,-102.975C172.589,-102.431,172.399,-102.454,173.187,-101.871C179.12,-89.04,177.614,-1.731,176.026,16.927C175.008,28.905,174.879,33.177,163.175,35.381C156.398,36.66,79.265,35.697,68.484,35.682C68.484,35.682,-119.607,35.642,-119.607,35.642C-133.067,35.64,-156.09,38.019,-164.627,33.321C-169.557,30.609,-172.141,30.407,-171.867,23.452C-174.37,26.418,-172.411,26.789,-178.505,30.1C-179.11,27.195,-179.921,23.681,-180.409,20.602C-183.064,22.78,-183.926,23.761,-184.206,28.669C-188.003,26.544,-184.659,27.202,-189.26,27.688C-186.373,51.642,-168.535,54.359,-144.311,54.392C-144.311,54.392,144.48,54.39,144.48,54.39C167.27,54.41,189.391,53.206,193.731,31.827C196.951,15.961,197.232,-96.861,192.512,-107.609C191.282,-108.327,192.103,-107.64,190.701,-109.233C183.9,-116.942,177.869,-121.599,177.366,-122.238C177.366,-122.238,140.044,-124.754,140.044,-124.754C139.156,-126.057,139.72,-124.61,139.232,-126.837C139.232,-126.837,139.148,-209.713,139.148,-209.713C136.681,-209.421,137.513,-210.608,135.934,-209.289C135.654,-205.101,134.938,-203.247,134.962,-197.891C134.962,-197.891,134.918,-175.094,134.918,-175.094C135.216,-168.167,137.253,-170.184,136.588,-163.807C135.519,-153.567,134.034,-161.923,134.034,-141.845C134.034,-125.102,135.889,-126.918,135.929,-120.941C141.871,-120.358,139.267,-118.088,146.379,-119.404C149.462,-119.976,150.408,-121.041,156.875,-120.274C156.875,-120.274,170.932,-115.823,170.932,-115.823C173.479,-115.523,171.393,-115.794,171.082,-116.192C171.405,-112.762,172.642,-115.102,170.61,-112.102C168.671,-109.233,161.368,-110.818,158.039,-111.386C157.392,-111.496,156.688,-111.733,155.687,-111.921C148.835,-113.204,81.089,-112.378,66.582,-112.393C48.412,-112.411,51.94,-109.933,33.269,-110.472C28.907,-110.598,27.321,-111.435,22.921,-111.49C14.691,-111.594,8.107,-111.297,0.087,-112.172C-16.245,-113.948,-111.151,-114.329,-133.857,-113.021C-134.173,-113.003,-153.389,-114.39,-160.667,-112.042C-165.961,-110.333,-168.4,-108.057,-169.44,-103.021" /></g></g></g></g><g id="i2"><g transform="translate(540,453.505)"><animateTransform repeatCount="indefinite" type="translate" attributeName="transform" dur="1.64s" begin="0s" calcMode="spline" values="540 453.505; 540 533.505; 540 453.505; 540 453.505" keyTimes="0; 0.487805; 0.97561; 1" keySplines="0.42 0 0.58 1; 0.42 0 0.58 1; 0 0 1 1" fill="freeze" /><g transform="scale(1,1) translate(0,6.495)"><g id="i6"><animate repeatCount="indefinite" attributeName="opacity" dur="1.64s" begin="0s" fill="freeze" values="1; 1; 0.3; 1; 0.3; 1; 1" keyTimes="0; 0.341463; 0.414634; 0.487805; 0.560976; 0.634146; 1" keySplines="0 0 1 1; 0.42 0 0.58 1; 0.42 0 0.58 1; 0.42 0 0.58 1; 0.42 0 0.58 1; 0 0 1 1" calcMode="spline" /><g transform="translate(97.262,-39.391) scale(1,1) translate(-97.262,39.391)"><g id="i1"><path fill="#35fff8" d="M91.601,-63.164C57.462,-53.523,74.223,-8.123,102.851,-15.299C135.17,-23.401,123.165,-72.076,91.601,-63.164" /></g></g></g></g></g></g><g id="i2"><g transform="translate(540,453.505)"><animateTransform repeatCount="indefinite" type="translate" attributeName="transform" dur="1.64s" begin="0s" calcMode="spline" values="540 453.505; 540 533.505; 540 453.505; 540 453.505" keyTimes="0; 0.487805; 0.97561; 1" keySplines="0.42 0 0.58 1; 0.42 0 0.58 1; 0 0 1 1" fill="freeze" /><g transform="scale(1,1) translate(0,6.495)"><g id="i7"><animate repeatCount="indefinite" attributeName="opacity" dur="1.64s" begin="0s" fill="freeze" values="1; 1; 0.3; 1; 0.3; 1; 1" keyTimes="0; 0.341463; 0.414634; 0.487805; 0.560976; 0.634146; 1" keySplines="0 0 1 1; 0.42 0 0.58 1; 0.42 0 0.58 1; 0.42 0 0.58 1; 0.42 0 0.58 1; 0 0 1 1" calcMode="spline" /><g transform="translate(-98.723,-39.53) scale(1,1) translate(98.723,39.53)"><g id="i1"><path fill="#35fff8" d="M-123.237,-37.35C-120.132,-5.952,-71.812,-8.262,-74.151,-41.087C-76.583,-75.222,-126.352,-68.854,-123.237,-37.35" /></g></g></g></g></g></g><g id="i2"><g transform="translate(540,453.505)"><animateTransform repeatCount="indefinite" type="translate" attributeName="transform" dur="1.64s" begin="0s" calcMode="spline" values="540 453.505; 540 533.505; 540 453.505; 540 453.505" keyTimes="0; 0.487805; 0.97561; 1" keySplines="0.42 0 0.58 1; 0.42 0 0.58 1; 0 0 1 1" fill="freeze" /><g transform="scale(1,1) translate(0,6.495)"><g id="i7"><g transform="translate(-98.723,-39.53) scale(1,1) translate(98.723,39.53)"><g transform="matrix(1,0,0,1,-8,92)" id="i8"><g stroke-dashoffset="-7.778" stroke-dasharray="85 15" pathLength="100" id="i9" transform="matrix(1,0,0,1,12,138)"><ellipse ry="64" rx="64" cy="0" cx="0" stroke-linecap="round" stroke-width="18" stroke="#000000" /></g></g></g></g></g></g></g><g id="i2"><g transform="translate(540,453.505)"><animateTransform repeatCount="indefinite" type="translate" attributeName="transform" dur="1.64s" begin="0s" calcMode="spline" values="540 453.505; 540 533.505; 540 453.505; 540 453.505" keyTimes="0; 0.487805; 0.97561; 1" keySplines="0.42 0 0.58 1; 0.42 0 0.58 1; 0 0 1 1" fill="freeze" /><g transform="scale(1,1) translate(0,6.495)"><g id="i7"><g transform="translate(-98.723,-39.53) scale(1,1) translate(98.723,39.53)"><g transform="matrix(1,0,0,1,1.5,92)" id="i10"><g id="i11"><path stroke-linecap="round" stroke-width="18" stroke="#000000" d="M3.5,54.5C3.5,54.5,3.5,142.5,3.5,142.5" /></g></g></g></g></g></g></g></svg>