<svg fill="none" height="100%" width="100%" viewBox="0 0 512 512" xmlns:xlink="http://www.w3.org/1999/xlink" xmlns="http://www.w3.org/2000/svg"><defs><clipPath id="i0"><rect height="512" width="512" y="0" x="0" /></clipPath><radialGradient id="i1" gradientUnits="userSpaceOnUse" spreadMethod="pad" cx="0" cy="0" r="100" fy="0" fx="0"><stop offset="0%" stop-color="#1881f8" /><stop offset="100%" stop-color="#b67cd0" /></radialGradient><radialGradient id="i2" gradientUnits="userSpaceOnUse" spreadMethod="pad" cx="87.515" cy="14.752" r="133.618" fy="14.752" fx="87.515"><stop offset="0%" stop-color="#1881f8" /><stop offset="100%" stop-color="#b67cd0" /></radialGradient><linearGradient id="i3" gradientUnits="userSpaceOnUse" spreadMethod="pad" x2="-36.486" y2="-38.996" x1="52.717" y1="60.3"><stop offset="0%" stop-color="#1881f8" /><stop offset="100%" stop-color="#b67cd0" /></linearGradient><linearGradient id="i4" gradientUnits="userSpaceOnUse" spreadMethod="pad" x2="93.267" y2="235.649" x1="-222.183" y1="4.04"><stop offset="0%" stop-color="#1881f8" /><stop offset="100%" stop-color="#b67cd0" /></linearGradient><g id="i5"><g opacity="0" visibility="visible" id="i6"><animate repeatCount="indefinite" begin="0s" calcMode="discrete" dur="3.017s" values="visible; hidden; hidden" keyTimes="0; 0.608067; 1" attributeName="visibility" /><animate repeatCount="indefinite" attributeName="opacity" dur="3.017s" begin="0s" fill="freeze" values="0; 1; 1; 0.01; 0.01" keyTimes="0; 0.055249; 0.569061; 0.607735; 1" keySplines="0 0 1 1; 0 0 1 1; 0 0 1 1; 0 0 1 1" calcMode="spline" /><g><g transform="translate(196.73,0)"><animateTransform repeatCount="indefinite" type="translate" attributeName="transform" dur="3.017s" begin="0s" calcMode="spline" values="196.73 0; 196.73 0; 354.58 0; 354.58 0" keyTimes="0; 0.055249; 0.574586; 1" keySplines="0 0 1 1; 0.297 0 0.587 1; 0 0 1 1" fill="freeze" /><g transform="translate(0,193.825)"><animateTransform repeatCount="indefinite" type="translate" attributeName="transform" dur="3.017s" begin="0s" calcMode="spline" values="0 193.825; 0 193.825; 0 317.64; 0 317.64" keyTimes="0; 0.055249; 0.574586; 1" keySplines="0 0 1 1; 0.315 0 0.559 1; 0 0 1 1" fill="freeze" /><g transform="scale(0,0)"><animateTransform repeatCount="indefinite" type="scale" attributeName="transform" dur="3.017s" begin="0s" calcMode="spline" values="0 0; 1 1; 0 0; 0 0" keyTimes="0; 0.331492; 0.607735; 1" keySplines="0.01 0 0.252 1; 0.401 0 0.667 1; 0 0 1 1" fill="freeze" /><g transform="translate(-78,-90)"><g id="i7" transform="matrix(1,0,0,1,79,90)" fill="url(#i1)"><path fill="url(#i2)" d="M-6.69,-85.362C-4.604,-91.546,4.141,-91.546,6.227,-85.362C6.227,-85.362,22.991,-35.658,22.991,-35.658C24.148,-32.227,26.622,-29.398,29.868,-27.793C29.868,-27.793,73.74,-6.11,73.74,-6.11C78.802,-3.609,78.802,3.609,73.74,6.111C73.74,6.111,29.868,27.794,29.868,27.794C26.622,29.398,24.148,32.227,22.991,35.658C22.991,35.658,6.227,85.362,6.227,85.362C4.141,91.546,-4.604,91.546,-6.69,85.362C-6.69,85.362,-23.454,35.658,-23.454,35.658C-24.611,32.227,-27.085,29.398,-30.331,27.794C-30.331,27.794,-74.204,6.111,-74.204,6.111C-79.265,3.609,-79.265,-3.609,-74.204,-6.11C-74.204,-6.11,-30.331,-27.793,-30.331,-27.793C-27.085,-29.398,-24.611,-32.227,-23.454,-35.658C-23.454,-35.658,-6.69,-85.362,-6.69,-85.362Z" /></g></g></g></g></g></g></g><g opacity="0" visibility="hidden" id="i8"><animate repeatCount="indefinite" begin="0s" calcMode="discrete" dur="3.017s" values="hidden; visible; hidden; hidden" keyTimes="0; 0.017002; 0.624069; 1" attributeName="visibility" /><animate repeatCount="indefinite" attributeName="opacity" dur="3.017s" begin="0s" fill="freeze" values="0; 0; 0.7; 0.7; 0.01; 0.01" keyTimes="0; 0.016575; 0.071823; 0.585636; 0.624309; 1" keySplines="0 0 1 1; 0 0 1 1; 0 0 1 1; 0 0 1 1; 0 0 1 1" calcMode="spline" /><g><g transform="translate(147.73,0)"><animateTransform repeatCount="indefinite" type="translate" attributeName="transform" dur="3.017s" begin="0s" calcMode="spline" values="147.73 0; 147.73 0; 311.455 0; 311.455 0" keyTimes="0; 0.071823; 0.61326; 1" keySplines="0 0 1 1; 0.579 0 0.782 1; 0 0 1 1" fill="freeze" /><g transform="translate(0,280.325)"><animateTransform repeatCount="indefinite" type="translate" attributeName="transform" dur="3.017s" begin="0s" calcMode="spline" values="0 280.325; 0 280.325; 0 378.265; 0 378.265" keyTimes="0; 0.071823; 0.61326; 1" keySplines="0 0 1 1; 0.506 0 0.779 1; 0 0 1 1" fill="freeze" /><g transform="scale(0,0)"><animateTransform repeatCount="indefinite" type="scale" attributeName="transform" dur="3.017s" begin="0s" calcMode="spline" values="0 0; 0 0; 0.7 0.7; 0 0; 0 0" keyTimes="0; 0.016575; 0.348067; 0.624309; 1" keySplines="0 0 1 1; 0.124 0 0.649 1; 0.853 0 0.988 1; 0 0 1 1" fill="freeze" /><g transform="translate(-78,-90)"><g id="i7" transform="matrix(1,0,0,1,79,90)"><path fill="url(#i3)" d="M-6.69,-85.362C-4.604,-91.546,4.141,-91.546,6.227,-85.362C6.227,-85.362,22.991,-35.658,22.991,-35.658C24.148,-32.227,26.622,-29.398,29.868,-27.793C29.868,-27.793,73.74,-6.11,73.74,-6.11C78.802,-3.609,78.802,3.609,73.74,6.111C73.74,6.111,29.868,27.794,29.868,27.794C26.622,29.398,24.148,32.227,22.991,35.658C22.991,35.658,6.227,85.362,6.227,85.362C4.141,91.546,-4.604,91.546,-6.69,85.362C-6.69,85.362,-23.454,35.658,-23.454,35.658C-24.611,32.227,-27.085,29.398,-30.331,27.794C-30.331,27.794,-74.204,6.111,-74.204,6.111C-79.265,3.609,-79.265,-3.609,-74.204,-6.11C-74.204,-6.11,-30.331,-27.793,-30.331,-27.793C-27.085,-29.398,-24.611,-32.227,-23.454,-35.658C-23.454,-35.658,-6.69,-85.362,-6.69,-85.362Z" /></g></g></g></g></g></g></g><g opacity="0" visibility="hidden" id="i9"><animate repeatCount="indefinite" begin="0s" calcMode="discrete" dur="3.017s" values="hidden; visible; hidden; hidden" keyTimes="0; 0.243027; 0.851094; 1" attributeName="visibility" /><animate repeatCount="indefinite" attributeName="opacity" dur="3.017s" begin="0s" fill="freeze" values="0; 0; 0.7; 0.7; 0.01; 0.01" keyTimes="0; 0.243094; 0.298342; 0.812155; 0.850829; 1" keySplines="0 0 1 1; 0 0 1 1; 0 0 1 1; 0 0 1 1; 0 0 1 1" calcMode="spline" /><g><g transform="translate(222.23,0)"><animateTransform repeatCount="indefinite" type="translate" attributeName="transform" dur="3.017s" begin="0s" calcMode="spline" values="222.23 0; 222.23 0; 347.517 0; 347.517 0" keyTimes="0; 0.298343; 0.81768; 1" keySplines="0 0 1 1; 0.363 0 0.554 1; 0 0 1 1" fill="freeze" /><g transform="translate(0,176.825)"><animateTransform repeatCount="indefinite" type="translate" attributeName="transform" dur="3.017s" begin="0s" calcMode="spline" values="0 176.825; 0 176.825; 0 324.452; 0 324.452" keyTimes="0; 0.298343; 0.81768; 1" keySplines="0 0 1 1; 0.355 0 0.576 1; 0 0 1 1" fill="freeze" /><g transform="scale(0,0)"><animateTransform repeatCount="indefinite" type="scale" attributeName="transform" dur="3.017s" begin="0s" calcMode="spline" values="0 0; 0 0; 0.7 0.7; 0 0; 0 0" keyTimes="0; 0.243094; 0.574586; 0.850829; 1" keySplines="0 0 1 1; 0.01 0 0.271 1; 0.507 0 0.976 1; 0 0 1 1" fill="freeze" /><g transform="translate(-78,-90)"><g id="i7" transform="matrix(1,0,0,1,79,90)"><path fill="url(#i4)" d="M-6.69,-85.362C-4.604,-91.546,4.141,-91.546,6.227,-85.362C6.227,-85.362,22.991,-35.658,22.991,-35.658C24.148,-32.227,26.622,-29.398,29.868,-27.793C29.868,-27.793,73.74,-6.11,73.74,-6.11C78.802,-3.609,78.802,3.609,73.74,6.111C73.74,6.111,29.868,27.794,29.868,27.794C26.622,29.398,24.148,32.227,22.991,35.658C22.991,35.658,6.227,85.362,6.227,85.362C4.141,91.546,-4.604,91.546,-6.69,85.362C-6.69,85.362,-23.454,35.658,-23.454,35.658C-24.611,32.227,-27.085,29.398,-30.331,27.794C-30.331,27.794,-74.204,6.111,-74.204,6.111C-79.265,3.609,-79.265,-3.609,-74.204,-6.11C-74.204,-6.11,-30.331,-27.793,-30.331,-27.793C-27.085,-29.398,-24.611,-32.227,-23.454,-35.658C-23.454,-35.658,-6.69,-85.362,-6.69,-85.362Z" /></g></g></g></g></g></g></g></g><radialGradient id="i10" gradientUnits="userSpaceOnUse" spreadMethod="pad" cx="0" cy="0" r="100" fy="0" fx="0"><stop offset="0%" stop-color="#1881f8" /><stop offset="100%" stop-color="#b67cd0" /></radialGradient><radialGradient id="i11" gradientUnits="userSpaceOnUse" spreadMethod="pad" cx="87.515" cy="14.752" r="133.618" fy="14.752" fx="87.515"><stop offset="0%" stop-color="#1881f8" /><stop offset="100%" stop-color="#b67cd0" /></radialGradient><linearGradient id="i12" gradientUnits="userSpaceOnUse" spreadMethod="pad" x2="-36.486" y2="-38.996" x1="52.717" y1="60.3"><stop offset="0%" stop-color="#1881f8" /><stop offset="100%" stop-color="#b67cd0" /></linearGradient><linearGradient id="i13" gradientUnits="userSpaceOnUse" spreadMethod="pad" x2="93.267" y2="235.649" x1="-222.183" y1="4.04"><stop offset="0%" stop-color="#1881f8" /><stop offset="100%" stop-color="#b67cd0" /></linearGradient><g id="i14"><g opacity="0" visibility="hidden" id="i6"><animate repeatCount="indefinite" begin="0s" calcMode="discrete" dur="3.017s" values="hidden; visible; visible" keyTimes="0; 0.508056; 1" attributeName="visibility" /><animate repeatCount="indefinite" attributeName="opacity" dur="3.017s" begin="0s" fill="freeze" values="0; 0; 1; 1; 0.01" keyTimes="0; 0.508287; 0.563536; 1; 1" keySplines="0 0 1 1; 0 0 1 1; 0 0 1 1; 0 0 1 1" calcMode="spline" /><g><g transform="translate(196.73,0)"><animateTransform repeatCount="indefinite" type="translate" attributeName="transform" dur="3.017s" begin="0s" calcMode="spline" values="196.73 0; 196.73 0; 354.58 0" keyTimes="0; 0.563536; 1" keySplines="0 0 1 1; 0.297 0 0.587 1" fill="freeze" /><g transform="translate(0,193.825)"><animateTransform repeatCount="indefinite" type="translate" attributeName="transform" dur="3.017s" begin="0s" calcMode="spline" values="0 193.825; 0 193.825; 0 317.64" keyTimes="0; 0.563536; 1" keySplines="0 0 1 1; 0.315 0 0.559 1" fill="freeze" /><g transform="scale(0,0)"><animateTransform repeatCount="indefinite" type="scale" attributeName="transform" dur="3.017s" begin="0s" calcMode="spline" values="0 0; 0 0; 1 1; 0 0" keyTimes="0; 0.508287; 0.839779; 1" keySplines="0 0 1 1; 0.01 0 0.252 1; 0.401 0 0.667 1" fill="freeze" /><g transform="translate(-78,-90)"><g id="i7" transform="matrix(1,0,0,1,79,90)" fill="url(#i10)"><path fill="url(#i11)" d="M-6.69,-85.362C-4.604,-91.546,4.141,-91.546,6.227,-85.362C6.227,-85.362,22.991,-35.658,22.991,-35.658C24.148,-32.227,26.622,-29.398,29.868,-27.793C29.868,-27.793,73.74,-6.11,73.74,-6.11C78.802,-3.609,78.802,3.609,73.74,6.111C73.74,6.111,29.868,27.794,29.868,27.794C26.622,29.398,24.148,32.227,22.991,35.658C22.991,35.658,6.227,85.362,6.227,85.362C4.141,91.546,-4.604,91.546,-6.69,85.362C-6.69,85.362,-23.454,35.658,-23.454,35.658C-24.611,32.227,-27.085,29.398,-30.331,27.794C-30.331,27.794,-74.204,6.111,-74.204,6.111C-79.265,3.609,-79.265,-3.609,-74.204,-6.11C-74.204,-6.11,-30.331,-27.793,-30.331,-27.793C-27.085,-29.398,-24.611,-32.227,-23.454,-35.658C-23.454,-35.658,-6.69,-85.362,-6.69,-85.362Z" /></g></g></g></g></g></g></g><g opacity="0" visibility="hidden" id="i8"><animate repeatCount="indefinite" begin="0s" calcMode="discrete" dur="3.017s" values="hidden; visible; visible" keyTimes="0; 0.525058; 1" attributeName="visibility" /><animate repeatCount="indefinite" attributeName="opacity" dur="3.017s" begin="0s" fill="freeze" values="0; 0; 0.7; 0.7; 0.01" keyTimes="0; 0.524862; 0.58011; 1; 1" keySplines="0 0 1 1; 0 0 1 1; 0 0 1 1; 0 0 1 1" calcMode="spline" /><g><g transform="translate(147.73,0)"><animateTransform repeatCount="indefinite" type="translate" attributeName="transform" dur="3.017s" begin="0s" calcMode="spline" values="147.73 0; 147.73 0; 311.455 0" keyTimes="0; 0.58011; 1" keySplines="0 0 1 1; 0.579 0 0.782 1" fill="freeze" /><g transform="translate(0,280.325)"><animateTransform repeatCount="indefinite" type="translate" attributeName="transform" dur="3.017s" begin="0s" calcMode="spline" values="0 280.325; 0 280.325; 0 378.265" keyTimes="0; 0.58011; 1" keySplines="0 0 1 1; 0.506 0 0.779 1" fill="freeze" /><g transform="scale(0,0)"><animateTransform repeatCount="indefinite" type="scale" attributeName="transform" dur="3.017s" begin="0s" calcMode="spline" values="0 0; 0 0; 0.7 0.7; 0 0" keyTimes="0; 0.524862; 0.856354; 1" keySplines="0 0 1 1; 0.124 0 0.649 1; 0.853 0 0.988 1" fill="freeze" /><g transform="translate(-78,-90)"><g id="i7" transform="matrix(1,0,0,1,79,90)"><path fill="url(#i12)" d="M-6.69,-85.362C-4.604,-91.546,4.141,-91.546,6.227,-85.362C6.227,-85.362,22.991,-35.658,22.991,-35.658C24.148,-32.227,26.622,-29.398,29.868,-27.793C29.868,-27.793,73.74,-6.11,73.74,-6.11C78.802,-3.609,78.802,3.609,73.74,6.111C73.74,6.111,29.868,27.794,29.868,27.794C26.622,29.398,24.148,32.227,22.991,35.658C22.991,35.658,6.227,85.362,6.227,85.362C4.141,91.546,-4.604,91.546,-6.69,85.362C-6.69,85.362,-23.454,35.658,-23.454,35.658C-24.611,32.227,-27.085,29.398,-30.331,27.794C-30.331,27.794,-74.204,6.111,-74.204,6.111C-79.265,3.609,-79.265,-3.609,-74.204,-6.11C-74.204,-6.11,-30.331,-27.793,-30.331,-27.793C-27.085,-29.398,-24.611,-32.227,-23.454,-35.658C-23.454,-35.658,-6.69,-85.362,-6.69,-85.362Z" /></g></g></g></g></g></g></g><g opacity="0" visibility="hidden" id="i9"><animate repeatCount="indefinite" begin="0s" calcMode="discrete" dur="3.017s" values="hidden; visible; visible" keyTimes="0; 0.751083; 1" attributeName="visibility" /><animate repeatCount="indefinite" attributeName="opacity" dur="3.017s" begin="0s" fill="freeze" values="0; 0; 0.7; 0.7; 0.01" keyTimes="0; 0.751381; 0.80663; 1; 1" keySplines="0 0 1 1; 0 0 1 1; 0 0 1 1; 0 0 1 1" calcMode="spline" /><g><g transform="translate(222.23,0)"><animateTransform repeatCount="indefinite" type="translate" attributeName="transform" dur="3.017s" begin="0s" calcMode="spline" values="222.23 0; 222.23 0; 347.517 0" keyTimes="0; 0.80663; 1" keySplines="0 0 1 1; 0.363 0 0.554 1" fill="freeze" /><g transform="translate(0,176.825)"><animateTransform repeatCount="indefinite" type="translate" attributeName="transform" dur="3.017s" begin="0s" calcMode="spline" values="0 176.825; 0 176.825; 0 324.452" keyTimes="0; 0.80663; 1" keySplines="0 0 1 1; 0.355 0 0.576 1" fill="freeze" /><g transform="scale(0,0)"><animateTransform repeatCount="indefinite" type="scale" attributeName="transform" dur="3.017s" begin="0s" calcMode="spline" values="0 0; 0 0; 0.7 0.7; 0 0" keyTimes="0; 0.751381; 1; 1" keySplines="0 0 1 1; 0.01 0 0.271 1; 0.507 0 0.976 1" fill="freeze" /><g transform="translate(-78,-90)"><g id="i7" transform="matrix(1,0,0,1,79,90)"><path fill="url(#i13)" d="M-6.69,-85.362C-4.604,-91.546,4.141,-91.546,6.227,-85.362C6.227,-85.362,22.991,-35.658,22.991,-35.658C24.148,-32.227,26.622,-29.398,29.868,-27.793C29.868,-27.793,73.74,-6.11,73.74,-6.11C78.802,-3.609,78.802,3.609,73.74,6.111C73.74,6.111,29.868,27.794,29.868,27.794C26.622,29.398,24.148,32.227,22.991,35.658C22.991,35.658,6.227,85.362,6.227,85.362C4.141,91.546,-4.604,91.546,-6.69,85.362C-6.69,85.362,-23.454,35.658,-23.454,35.658C-24.611,32.227,-27.085,29.398,-30.331,27.794C-30.331,27.794,-74.204,6.111,-74.204,6.111C-79.265,3.609,-79.265,-3.609,-74.204,-6.11C-74.204,-6.11,-30.331,-27.793,-30.331,-27.793C-27.085,-29.398,-24.611,-32.227,-23.454,-35.658C-23.454,-35.658,-6.69,-85.362,-6.69,-85.362Z" /></g></g></g></g></g></g></g></g><radialGradient id="i15" gradientUnits="userSpaceOnUse" spreadMethod="pad" cx="0" cy="0" r="100" fy="0" fx="0"><stop offset="0%" stop-color="#1881f8" /><stop offset="100%" stop-color="#b67cd0" /></radialGradient><radialGradient id="i16" gradientUnits="userSpaceOnUse" spreadMethod="pad" cx="87.515" cy="14.752" r="133.618" fy="14.752" fx="87.515"><stop offset="0%" stop-color="#1881f8" /><stop offset="100%" stop-color="#b67cd0" /></radialGradient><linearGradient id="i17" gradientUnits="userSpaceOnUse" spreadMethod="pad" x2="-36.486" y2="-38.996" x1="52.717" y1="60.3"><stop offset="0%" stop-color="#1881f8" /><stop offset="100%" stop-color="#b67cd0" /></linearGradient><linearGradient id="i18" gradientUnits="userSpaceOnUse" spreadMethod="pad" x2="93.267" y2="235.649" x1="-222.183" y1="4.04"><stop offset="0%" stop-color="#1881f8" /><stop offset="100%" stop-color="#b67cd0" /></linearGradient><g id="i19"><g opacity="0" visibility="visible" id="i6"><animate repeatCount="indefinite" begin="0s" calcMode="discrete" dur="3.017s" values="visible; hidden; hidden" keyTimes="0; 0.116013; 1" attributeName="visibility" /><animate repeatCount="indefinite" attributeName="opacity" dur="3.017s" begin="0s" fill="freeze" values="0; 1; 1; 0.01; 0.01" keyTimes="0; 0.055249; 0.569061; 0.607735; 1" keySplines="0 0 1 1; 0 0 1 1; 0 0 1 1; 0 0 1 1" calcMode="spline" /><g><g transform="translate(196.73,0)"><animateTransform repeatCount="indefinite" type="translate" attributeName="transform" dur="3.017s" begin="0s" calcMode="spline" values="196.73 0; 354.58 0; 354.58 0" keyTimes="0; 0.519337; 1" keySplines="0.297 0 0.587 1; 0 0 1 1" fill="freeze" /><g transform="translate(0,193.825)"><animateTransform repeatCount="indefinite" type="translate" attributeName="transform" dur="3.017s" begin="0s" calcMode="spline" values="0 193.825; 0 317.64; 0 317.64" keyTimes="0; 0.519337; 1" keySplines="0.315 0 0.559 1; 0 0 1 1" fill="freeze" /><g transform="scale(0,0)"><animateTransform repeatCount="indefinite" type="scale" attributeName="transform" dur="3.017s" begin="0s" calcMode="spline" values="0 0; 1 1; 0 0; 0 0" keyTimes="0; 0.331492; 0.607735; 1" keySplines="0.01 0 0.252 1; 0.401 0 0.667 1; 0 0 1 1" fill="freeze" /><g transform="translate(-78,-90)"><g id="i7" transform="matrix(1,0,0,1,79,90)" fill="url(#i15)"><path fill="url(#i16)" d="M-6.69,-85.362C-4.604,-91.546,4.141,-91.546,6.227,-85.362C6.227,-85.362,22.991,-35.658,22.991,-35.658C24.148,-32.227,26.622,-29.398,29.868,-27.793C29.868,-27.793,73.74,-6.11,73.74,-6.11C78.802,-3.609,78.802,3.609,73.74,6.111C73.74,6.111,29.868,27.794,29.868,27.794C26.622,29.398,24.148,32.227,22.991,35.658C22.991,35.658,6.227,85.362,6.227,85.362C4.141,91.546,-4.604,91.546,-6.69,85.362C-6.69,85.362,-23.454,35.658,-23.454,35.658C-24.611,32.227,-27.085,29.398,-30.331,27.794C-30.331,27.794,-74.204,6.111,-74.204,6.111C-79.265,3.609,-79.265,-3.609,-74.204,-6.11C-74.204,-6.11,-30.331,-27.793,-30.331,-27.793C-27.085,-29.398,-24.611,-32.227,-23.454,-35.658C-23.454,-35.658,-6.69,-85.362,-6.69,-85.362Z" /></g></g></g></g></g></g></g><g opacity="0" visibility="visible" id="i8"><animate repeatCount="indefinite" begin="0s" calcMode="discrete" dur="3.017s" values="visible; hidden; hidden" keyTimes="0; 0.133015; 1" attributeName="visibility" /><animate repeatCount="indefinite" attributeName="opacity" dur="3.017s" begin="0s" fill="freeze" values="0; 0.7; 0.7; 0.01; 0.01" keyTimes="0; 0.055249; 0.569061; 0.607735; 1" keySplines="0 0 1 1; 0 0 1 1; 0 0 1 1; 0 0 1 1" calcMode="spline" /><g><g transform="translate(147.73,0)"><animateTransform repeatCount="indefinite" type="translate" attributeName="transform" dur="3.017s" begin="0s" calcMode="spline" values="147.73 0; 311.455 0; 311.455 0" keyTimes="0; 0.541436; 1" keySplines="0.579 0 0.782 1; 0 0 1 1" fill="freeze" /><g transform="translate(0,280.325)"><animateTransform repeatCount="indefinite" type="translate" attributeName="transform" dur="3.017s" begin="0s" calcMode="spline" values="0 280.325; 0 378.265; 0 378.265" keyTimes="0; 0.541436; 1" keySplines="0.506 0 0.779 1; 0 0 1 1" fill="freeze" /><g transform="scale(0,0)"><animateTransform repeatCount="indefinite" type="scale" attributeName="transform" dur="3.017s" begin="0s" calcMode="spline" values="0 0; 0.7 0.7; 0 0; 0 0" keyTimes="0; 0.331492; 0.607735; 1" keySplines="0.124 0 0.649 1; 0.853 0 0.988 1; 0 0 1 1" fill="freeze" /><g transform="translate(-78,-90)"><g id="i7" transform="matrix(1,0,0,1,79,90)"><path fill="url(#i17)" d="M-6.69,-85.362C-4.604,-91.546,4.141,-91.546,6.227,-85.362C6.227,-85.362,22.991,-35.658,22.991,-35.658C24.148,-32.227,26.622,-29.398,29.868,-27.793C29.868,-27.793,73.74,-6.11,73.74,-6.11C78.802,-3.609,78.802,3.609,73.74,6.111C73.74,6.111,29.868,27.794,29.868,27.794C26.622,29.398,24.148,32.227,22.991,35.658C22.991,35.658,6.227,85.362,6.227,85.362C4.141,91.546,-4.604,91.546,-6.69,85.362C-6.69,85.362,-23.454,35.658,-23.454,35.658C-24.611,32.227,-27.085,29.398,-30.331,27.794C-30.331,27.794,-74.204,6.111,-74.204,6.111C-79.265,3.609,-79.265,-3.609,-74.204,-6.11C-74.204,-6.11,-30.331,-27.793,-30.331,-27.793C-27.085,-29.398,-24.611,-32.227,-23.454,-35.658C-23.454,-35.658,-6.69,-85.362,-6.69,-85.362Z" /></g></g></g></g></g></g></g><g opacity="0" visibility="visible" id="i9"><animate repeatCount="indefinite" begin="0s" calcMode="discrete" dur="3.017s" values="visible; hidden; hidden" keyTimes="0; 0.35904; 1" attributeName="visibility" /><animate repeatCount="indefinite" attributeName="opacity" dur="3.017s" begin="0s" fill="freeze" values="0; 0.7; 0.7; 0.01; 0.01" keyTimes="0; 0.055249; 0.569061; 0.607735; 1" keySplines="0 0 1 1; 0 0 1 1; 0 0 1 1; 0 0 1 1" calcMode="spline" /><g><g transform="translate(222.23,0)"><animateTransform repeatCount="indefinite" type="translate" attributeName="transform" dur="3.017s" begin="0s" calcMode="spline" values="222.23 0; 347.517 0; 347.517 0" keyTimes="0; 0.519337; 1" keySplines="0.363 0 0.554 1; 0 0 1 1" fill="freeze" /><g transform="translate(0,176.825)"><animateTransform repeatCount="indefinite" type="translate" attributeName="transform" dur="3.017s" begin="0s" calcMode="spline" values="0 176.825; 0 324.452; 0 324.452" keyTimes="0; 0.519337; 1" keySplines="0.355 0 0.576 1; 0 0 1 1" fill="freeze" /><g transform="scale(0,0)"><animateTransform repeatCount="indefinite" type="scale" attributeName="transform" dur="3.017s" begin="0s" calcMode="spline" values="0 0; 0.7 0.7; 0 0; 0 0" keyTimes="0; 0.331492; 0.607735; 1" keySplines="0.01 0 0.271 1; 0.507 0 0.976 1; 0 0 1 1" fill="freeze" /><g transform="translate(-78,-90)"><g id="i7" transform="matrix(1,0,0,1,79,90)"><path fill="url(#i18)" d="M-6.69,-85.362C-4.604,-91.546,4.141,-91.546,6.227,-85.362C6.227,-85.362,22.991,-35.658,22.991,-35.658C24.148,-32.227,26.622,-29.398,29.868,-27.793C29.868,-27.793,73.74,-6.11,73.74,-6.11C78.802,-3.609,78.802,3.609,73.74,6.111C73.74,6.111,29.868,27.794,29.868,27.794C26.622,29.398,24.148,32.227,22.991,35.658C22.991,35.658,6.227,85.362,6.227,85.362C4.141,91.546,-4.604,91.546,-6.69,85.362C-6.69,85.362,-23.454,35.658,-23.454,35.658C-24.611,32.227,-27.085,29.398,-30.331,27.794C-30.331,27.794,-74.204,6.111,-74.204,6.111C-79.265,3.609,-79.265,-3.609,-74.204,-6.11C-74.204,-6.11,-30.331,-27.793,-30.331,-27.793C-27.085,-29.398,-24.611,-32.227,-23.454,-35.658C-23.454,-35.658,-6.69,-85.362,-6.69,-85.362Z" /></g></g></g></g></g></g></g></g></defs><g transform="matrix(1,0,0,1,0,0)" visibility="visible" id="i20"><animate repeatCount="indefinite" begin="0s" calcMode="discrete" dur="3.017s" values="visible; hidden; hidden" keyTimes="0; 0.762084; 1" attributeName="visibility" /><g clip-path="url(#i0)"><g opacity="0" visibility="visible"><animate repeatCount="indefinite" begin="0s" calcMode="discrete" dur="3.017s" values="visible; hidden; hidden" keyTimes="0; 0.608067; 1" attributeName="visibility" /><animate repeatCount="indefinite" attributeName="opacity" dur="3.017s" begin="0s" fill="freeze" values="0; 1; 1; 0.01; 0.01" keyTimes="0; 0.055249; 0.569061; 0.607735; 1" keySplines="0 0 1 1; 0 0 1 1; 0 0 1 1; 0 0 1 1" calcMode="spline" /><g><g transform="translate(196.73,0)"><animateTransform repeatCount="indefinite" type="translate" attributeName="transform" dur="3.017s" begin="0s" calcMode="spline" values="196.73 0; 196.73 0; 354.58 0; 354.58 0" keyTimes="0; 0.055249; 0.574586; 1" keySplines="0 0 1 1; 0.297 0 0.587 1; 0 0 1 1" fill="freeze" /><g transform="translate(0,193.825)"><animateTransform repeatCount="indefinite" type="translate" attributeName="transform" dur="3.017s" begin="0s" calcMode="spline" values="0 193.825; 0 193.825; 0 317.64; 0 317.64" keyTimes="0; 0.055249; 0.574586; 1" keySplines="0 0 1 1; 0.315 0 0.559 1; 0 0 1 1" fill="freeze" /><g transform="scale(0,0)"><animateTransform repeatCount="indefinite" type="scale" attributeName="transform" dur="3.017s" begin="0s" calcMode="spline" values="0 0; 1 1; 0 0; 0 0" keyTimes="0; 0.331492; 0.607735; 1" keySplines="0.01 0 0.252 1; 0.401 0 0.667 1; 0 0 1 1" fill="freeze" /><g transform="translate(-78,-90)"><g transform="matrix(1,0,0,1,79,90)" fill="url(#i1)"><path fill="url(#i2)" d="M-6.69,-85.362C-4.604,-91.546,4.141,-91.546,6.227,-85.362C6.227,-85.362,22.991,-35.658,22.991,-35.658C24.148,-32.227,26.622,-29.398,29.868,-27.793C29.868,-27.793,73.74,-6.11,73.74,-6.11C78.802,-3.609,78.802,3.609,73.74,6.111C73.74,6.111,29.868,27.794,29.868,27.794C26.622,29.398,24.148,32.227,22.991,35.658C22.991,35.658,6.227,85.362,6.227,85.362C4.141,91.546,-4.604,91.546,-6.69,85.362C-6.69,85.362,-23.454,35.658,-23.454,35.658C-24.611,32.227,-27.085,29.398,-30.331,27.794C-30.331,27.794,-74.204,6.111,-74.204,6.111C-79.265,3.609,-79.265,-3.609,-74.204,-6.11C-74.204,-6.11,-30.331,-27.793,-30.331,-27.793C-27.085,-29.398,-24.611,-32.227,-23.454,-35.658C-23.454,-35.658,-6.69,-85.362,-6.69,-85.362Z" /></g></g></g></g></g></g></g><g opacity="0" visibility="hidden"><animate repeatCount="indefinite" begin="0s" calcMode="discrete" dur="3.017s" values="hidden; visible; hidden; hidden" keyTimes="0; 0.017002; 0.624069; 1" attributeName="visibility" /><animate repeatCount="indefinite" attributeName="opacity" dur="3.017s" begin="0s" fill="freeze" values="0; 0; 0.7; 0.7; 0.01; 0.01" keyTimes="0; 0.016575; 0.071823; 0.585636; 0.624309; 1" keySplines="0 0 1 1; 0 0 1 1; 0 0 1 1; 0 0 1 1; 0 0 1 1" calcMode="spline" /><g><g transform="translate(147.73,0)"><animateTransform repeatCount="indefinite" type="translate" attributeName="transform" dur="3.017s" begin="0s" calcMode="spline" values="147.73 0; 147.73 0; 311.455 0; 311.455 0" keyTimes="0; 0.071823; 0.61326; 1" keySplines="0 0 1 1; 0.579 0 0.782 1; 0 0 1 1" fill="freeze" /><g transform="translate(0,280.325)"><animateTransform repeatCount="indefinite" type="translate" attributeName="transform" dur="3.017s" begin="0s" calcMode="spline" values="0 280.325; 0 280.325; 0 378.265; 0 378.265" keyTimes="0; 0.071823; 0.61326; 1" keySplines="0 0 1 1; 0.506 0 0.779 1; 0 0 1 1" fill="freeze" /><g transform="scale(0,0)"><animateTransform repeatCount="indefinite" type="scale" attributeName="transform" dur="3.017s" begin="0s" calcMode="spline" values="0 0; 0 0; 0.7 0.7; 0 0; 0 0" keyTimes="0; 0.016575; 0.348067; 0.624309; 1" keySplines="0 0 1 1; 0.124 0 0.649 1; 0.853 0 0.988 1; 0 0 1 1" fill="freeze" /><g transform="translate(-78,-90)"><g transform="matrix(1,0,0,1,79,90)"><path fill="url(#i3)" d="M-6.69,-85.362C-4.604,-91.546,4.141,-91.546,6.227,-85.362C6.227,-85.362,22.991,-35.658,22.991,-35.658C24.148,-32.227,26.622,-29.398,29.868,-27.793C29.868,-27.793,73.74,-6.11,73.74,-6.11C78.802,-3.609,78.802,3.609,73.74,6.111C73.74,6.111,29.868,27.794,29.868,27.794C26.622,29.398,24.148,32.227,22.991,35.658C22.991,35.658,6.227,85.362,6.227,85.362C4.141,91.546,-4.604,91.546,-6.69,85.362C-6.69,85.362,-23.454,35.658,-23.454,35.658C-24.611,32.227,-27.085,29.398,-30.331,27.794C-30.331,27.794,-74.204,6.111,-74.204,6.111C-79.265,3.609,-79.265,-3.609,-74.204,-6.11C-74.204,-6.11,-30.331,-27.793,-30.331,-27.793C-27.085,-29.398,-24.611,-32.227,-23.454,-35.658C-23.454,-35.658,-6.69,-85.362,-6.69,-85.362Z" /></g></g></g></g></g></g></g><g opacity="0" visibility="hidden"><animate repeatCount="indefinite" begin="0s" calcMode="discrete" dur="3.017s" values="hidden; visible; hidden; hidden" keyTimes="0; 0.243027; 0.851094; 1" attributeName="visibility" /><animate repeatCount="indefinite" attributeName="opacity" dur="3.017s" begin="0s" fill="freeze" values="0; 0; 0.7; 0.7; 0.01; 0.01" keyTimes="0; 0.243094; 0.298342; 0.812155; 0.850829; 1" keySplines="0 0 1 1; 0 0 1 1; 0 0 1 1; 0 0 1 1; 0 0 1 1" calcMode="spline" /><g><g transform="translate(222.23,0)"><animateTransform repeatCount="indefinite" type="translate" attributeName="transform" dur="3.017s" begin="0s" calcMode="spline" values="222.23 0; 222.23 0; 347.517 0; 347.517 0" keyTimes="0; 0.298343; 0.81768; 1" keySplines="0 0 1 1; 0.363 0 0.554 1; 0 0 1 1" fill="freeze" /><g transform="translate(0,176.825)"><animateTransform repeatCount="indefinite" type="translate" attributeName="transform" dur="3.017s" begin="0s" calcMode="spline" values="0 176.825; 0 176.825; 0 324.452; 0 324.452" keyTimes="0; 0.298343; 0.81768; 1" keySplines="0 0 1 1; 0.355 0 0.576 1; 0 0 1 1" fill="freeze" /><g transform="scale(0,0)"><animateTransform repeatCount="indefinite" type="scale" attributeName="transform" dur="3.017s" begin="0s" calcMode="spline" values="0 0; 0 0; 0.7 0.7; 0 0; 0 0" keyTimes="0; 0.243094; 0.574586; 0.850829; 1" keySplines="0 0 1 1; 0.01 0 0.271 1; 0.507 0 0.976 1; 0 0 1 1" fill="freeze" /><g transform="translate(-78,-90)"><g transform="matrix(1,0,0,1,79,90)"><path fill="url(#i4)" d="M-6.69,-85.362C-4.604,-91.546,4.141,-91.546,6.227,-85.362C6.227,-85.362,22.991,-35.658,22.991,-35.658C24.148,-32.227,26.622,-29.398,29.868,-27.793C29.868,-27.793,73.74,-6.11,73.74,-6.11C78.802,-3.609,78.802,3.609,73.74,6.111C73.74,6.111,29.868,27.794,29.868,27.794C26.622,29.398,24.148,32.227,22.991,35.658C22.991,35.658,6.227,85.362,6.227,85.362C4.141,91.546,-4.604,91.546,-6.69,85.362C-6.69,85.362,-23.454,35.658,-23.454,35.658C-24.611,32.227,-27.085,29.398,-30.331,27.794C-30.331,27.794,-74.204,6.111,-74.204,6.111C-79.265,3.609,-79.265,-3.609,-74.204,-6.11C-74.204,-6.11,-30.331,-27.793,-30.331,-27.793C-27.085,-29.398,-24.611,-32.227,-23.454,-35.658C-23.454,-35.658,-6.69,-85.362,-6.69,-85.362Z" /></g></g></g></g></g></g></g></g></g><g transform="matrix(1,0,0,1,0,0)" visibility="hidden" id="i20"><animate repeatCount="indefinite" begin="0s" calcMode="discrete" dur="3.017s" values="hidden; visible; visible" keyTimes="0; 0.508056; 1" attributeName="visibility" /><g clip-path="url(#i0)"><g opacity="0" visibility="hidden"><animate repeatCount="indefinite" begin="0s" calcMode="discrete" dur="3.017s" values="hidden; visible; visible" keyTimes="0; 0.508056; 1" attributeName="visibility" /><animate repeatCount="indefinite" attributeName="opacity" dur="3.017s" begin="0s" fill="freeze" values="0; 0; 1; 1; 0.01" keyTimes="0; 0.508287; 0.563536; 1; 1" keySplines="0 0 1 1; 0 0 1 1; 0 0 1 1; 0 0 1 1" calcMode="spline" /><g><g transform="translate(196.73,0)"><animateTransform repeatCount="indefinite" type="translate" attributeName="transform" dur="3.017s" begin="0s" calcMode="spline" values="196.73 0; 196.73 0; 354.58 0" keyTimes="0; 0.563536; 1" keySplines="0 0 1 1; 0.297 0 0.587 1" fill="freeze" /><g transform="translate(0,193.825)"><animateTransform repeatCount="indefinite" type="translate" attributeName="transform" dur="3.017s" begin="0s" calcMode="spline" values="0 193.825; 0 193.825; 0 317.64" keyTimes="0; 0.563536; 1" keySplines="0 0 1 1; 0.315 0 0.559 1" fill="freeze" /><g transform="scale(0,0)"><animateTransform repeatCount="indefinite" type="scale" attributeName="transform" dur="3.017s" begin="0s" calcMode="spline" values="0 0; 0 0; 1 1; 0 0" keyTimes="0; 0.508287; 0.839779; 1" keySplines="0 0 1 1; 0.01 0 0.252 1; 0.401 0 0.667 1" fill="freeze" /><g transform="translate(-78,-90)"><g transform="matrix(1,0,0,1,79,90)" fill="url(#i10)"><path fill="url(#i11)" d="M-6.69,-85.362C-4.604,-91.546,4.141,-91.546,6.227,-85.362C6.227,-85.362,22.991,-35.658,22.991,-35.658C24.148,-32.227,26.622,-29.398,29.868,-27.793C29.868,-27.793,73.74,-6.11,73.74,-6.11C78.802,-3.609,78.802,3.609,73.74,6.111C73.74,6.111,29.868,27.794,29.868,27.794C26.622,29.398,24.148,32.227,22.991,35.658C22.991,35.658,6.227,85.362,6.227,85.362C4.141,91.546,-4.604,91.546,-6.69,85.362C-6.69,85.362,-23.454,35.658,-23.454,35.658C-24.611,32.227,-27.085,29.398,-30.331,27.794C-30.331,27.794,-74.204,6.111,-74.204,6.111C-79.265,3.609,-79.265,-3.609,-74.204,-6.11C-74.204,-6.11,-30.331,-27.793,-30.331,-27.793C-27.085,-29.398,-24.611,-32.227,-23.454,-35.658C-23.454,-35.658,-6.69,-85.362,-6.69,-85.362Z" /></g></g></g></g></g></g></g><g opacity="0" visibility="hidden"><animate repeatCount="indefinite" begin="0s" calcMode="discrete" dur="3.017s" values="hidden; visible; visible" keyTimes="0; 0.525058; 1" attributeName="visibility" /><animate repeatCount="indefinite" attributeName="opacity" dur="3.017s" begin="0s" fill="freeze" values="0; 0; 0.7; 0.7; 0.01" keyTimes="0; 0.524862; 0.58011; 1; 1" keySplines="0 0 1 1; 0 0 1 1; 0 0 1 1; 0 0 1 1" calcMode="spline" /><g><g transform="translate(147.73,0)"><animateTransform repeatCount="indefinite" type="translate" attributeName="transform" dur="3.017s" begin="0s" calcMode="spline" values="147.73 0; 147.73 0; 311.455 0" keyTimes="0; 0.58011; 1" keySplines="0 0 1 1; 0.579 0 0.782 1" fill="freeze" /><g transform="translate(0,280.325)"><animateTransform repeatCount="indefinite" type="translate" attributeName="transform" dur="3.017s" begin="0s" calcMode="spline" values="0 280.325; 0 280.325; 0 378.265" keyTimes="0; 0.58011; 1" keySplines="0 0 1 1; 0.506 0 0.779 1" fill="freeze" /><g transform="scale(0,0)"><animateTransform repeatCount="indefinite" type="scale" attributeName="transform" dur="3.017s" begin="0s" calcMode="spline" values="0 0; 0 0; 0.7 0.7; 0 0" keyTimes="0; 0.524862; 0.856354; 1" keySplines="0 0 1 1; 0.124 0 0.649 1; 0.853 0 0.988 1" fill="freeze" /><g transform="translate(-78,-90)"><g transform="matrix(1,0,0,1,79,90)"><path fill="url(#i12)" d="M-6.69,-85.362C-4.604,-91.546,4.141,-91.546,6.227,-85.362C6.227,-85.362,22.991,-35.658,22.991,-35.658C24.148,-32.227,26.622,-29.398,29.868,-27.793C29.868,-27.793,73.74,-6.11,73.74,-6.11C78.802,-3.609,78.802,3.609,73.74,6.111C73.74,6.111,29.868,27.794,29.868,27.794C26.622,29.398,24.148,32.227,22.991,35.658C22.991,35.658,6.227,85.362,6.227,85.362C4.141,91.546,-4.604,91.546,-6.69,85.362C-6.69,85.362,-23.454,35.658,-23.454,35.658C-24.611,32.227,-27.085,29.398,-30.331,27.794C-30.331,27.794,-74.204,6.111,-74.204,6.111C-79.265,3.609,-79.265,-3.609,-74.204,-6.11C-74.204,-6.11,-30.331,-27.793,-30.331,-27.793C-27.085,-29.398,-24.611,-32.227,-23.454,-35.658C-23.454,-35.658,-6.69,-85.362,-6.69,-85.362Z" /></g></g></g></g></g></g></g><g opacity="0" visibility="hidden"><animate repeatCount="indefinite" begin="0s" calcMode="discrete" dur="3.017s" values="hidden; visible; visible" keyTimes="0; 0.751083; 1" attributeName="visibility" /><animate repeatCount="indefinite" attributeName="opacity" dur="3.017s" begin="0s" fill="freeze" values="0; 0; 0.7; 0.7; 0.01" keyTimes="0; 0.751381; 0.80663; 1; 1" keySplines="0 0 1 1; 0 0 1 1; 0 0 1 1; 0 0 1 1" calcMode="spline" /><g><g transform="translate(222.23,0)"><animateTransform repeatCount="indefinite" type="translate" attributeName="transform" dur="3.017s" begin="0s" calcMode="spline" values="222.23 0; 222.23 0; 347.517 0" keyTimes="0; 0.80663; 1" keySplines="0 0 1 1; 0.363 0 0.554 1" fill="freeze" /><g transform="translate(0,176.825)"><animateTransform repeatCount="indefinite" type="translate" attributeName="transform" dur="3.017s" begin="0s" calcMode="spline" values="0 176.825; 0 176.825; 0 324.452" keyTimes="0; 0.80663; 1" keySplines="0 0 1 1; 0.355 0 0.576 1" fill="freeze" /><g transform="scale(0,0)"><animateTransform repeatCount="indefinite" type="scale" attributeName="transform" dur="3.017s" begin="0s" calcMode="spline" values="0 0; 0 0; 0.7 0.7; 0 0" keyTimes="0; 0.751381; 1; 1" keySplines="0 0 1 1; 0.01 0 0.271 1; 0.507 0 0.976 1" fill="freeze" /><g transform="translate(-78,-90)"><g transform="matrix(1,0,0,1,79,90)"><path fill="url(#i13)" d="M-6.69,-85.362C-4.604,-91.546,4.141,-91.546,6.227,-85.362C6.227,-85.362,22.991,-35.658,22.991,-35.658C24.148,-32.227,26.622,-29.398,29.868,-27.793C29.868,-27.793,73.74,-6.11,73.74,-6.11C78.802,-3.609,78.802,3.609,73.74,6.111C73.74,6.111,29.868,27.794,29.868,27.794C26.622,29.398,24.148,32.227,22.991,35.658C22.991,35.658,6.227,85.362,6.227,85.362C4.141,91.546,-4.604,91.546,-6.69,85.362C-6.69,85.362,-23.454,35.658,-23.454,35.658C-24.611,32.227,-27.085,29.398,-30.331,27.794C-30.331,27.794,-74.204,6.111,-74.204,6.111C-79.265,3.609,-79.265,-3.609,-74.204,-6.11C-74.204,-6.11,-30.331,-27.793,-30.331,-27.793C-27.085,-29.398,-24.611,-32.227,-23.454,-35.658C-23.454,-35.658,-6.69,-85.362,-6.69,-85.362Z" /></g></g></g></g></g></g></g></g></g><g transform="matrix(1,0,0,1,0,0)" visibility="visible" id="i20"><animate repeatCount="indefinite" begin="0s" calcMode="discrete" dur="3.017s" values="visible; hidden; hidden" keyTimes="0; 0.35904; 1" attributeName="visibility" /><g clip-path="url(#i0)"><g opacity="0" visibility="visible"><animate repeatCount="indefinite" begin="0s" calcMode="discrete" dur="3.017s" values="visible; hidden; hidden" keyTimes="0; 0.116013; 1" attributeName="visibility" /><animate repeatCount="indefinite" attributeName="opacity" dur="3.017s" begin="0s" fill="freeze" values="0; 1; 1; 0.01; 0.01" keyTimes="0; 0.055249; 0.569061; 0.607735; 1" keySplines="0 0 1 1; 0 0 1 1; 0 0 1 1; 0 0 1 1" calcMode="spline" /><g><g transform="translate(196.73,0)"><animateTransform repeatCount="indefinite" type="translate" attributeName="transform" dur="3.017s" begin="0s" calcMode="spline" values="196.73 0; 354.58 0; 354.58 0" keyTimes="0; 0.519337; 1" keySplines="0.297 0 0.587 1; 0 0 1 1" fill="freeze" /><g transform="translate(0,193.825)"><animateTransform repeatCount="indefinite" type="translate" attributeName="transform" dur="3.017s" begin="0s" calcMode="spline" values="0 193.825; 0 317.64; 0 317.64" keyTimes="0; 0.519337; 1" keySplines="0.315 0 0.559 1; 0 0 1 1" fill="freeze" /><g transform="scale(0,0)"><animateTransform repeatCount="indefinite" type="scale" attributeName="transform" dur="3.017s" begin="0s" calcMode="spline" values="0 0; 1 1; 0 0; 0 0" keyTimes="0; 0.331492; 0.607735; 1" keySplines="0.01 0 0.252 1; 0.401 0 0.667 1; 0 0 1 1" fill="freeze" /><g transform="translate(-78,-90)"><g transform="matrix(1,0,0,1,79,90)" fill="url(#i15)"><path fill="url(#i16)" d="M-6.69,-85.362C-4.604,-91.546,4.141,-91.546,6.227,-85.362C6.227,-85.362,22.991,-35.658,22.991,-35.658C24.148,-32.227,26.622,-29.398,29.868,-27.793C29.868,-27.793,73.74,-6.11,73.74,-6.11C78.802,-3.609,78.802,3.609,73.74,6.111C73.74,6.111,29.868,27.794,29.868,27.794C26.622,29.398,24.148,32.227,22.991,35.658C22.991,35.658,6.227,85.362,6.227,85.362C4.141,91.546,-4.604,91.546,-6.69,85.362C-6.69,85.362,-23.454,35.658,-23.454,35.658C-24.611,32.227,-27.085,29.398,-30.331,27.794C-30.331,27.794,-74.204,6.111,-74.204,6.111C-79.265,3.609,-79.265,-3.609,-74.204,-6.11C-74.204,-6.11,-30.331,-27.793,-30.331,-27.793C-27.085,-29.398,-24.611,-32.227,-23.454,-35.658C-23.454,-35.658,-6.69,-85.362,-6.69,-85.362Z" /></g></g></g></g></g></g></g><g opacity="0" visibility="visible"><animate repeatCount="indefinite" begin="0s" calcMode="discrete" dur="3.017s" values="visible; hidden; hidden" keyTimes="0; 0.133015; 1" attributeName="visibility" /><animate repeatCount="indefinite" attributeName="opacity" dur="3.017s" begin="0s" fill="freeze" values="0; 0.7; 0.7; 0.01; 0.01" keyTimes="0; 0.055249; 0.569061; 0.607735; 1" keySplines="0 0 1 1; 0 0 1 1; 0 0 1 1; 0 0 1 1" calcMode="spline" /><g><g transform="translate(147.73,0)"><animateTransform repeatCount="indefinite" type="translate" attributeName="transform" dur="3.017s" begin="0s" calcMode="spline" values="147.73 0; 311.455 0; 311.455 0" keyTimes="0; 0.541436; 1" keySplines="0.579 0 0.782 1; 0 0 1 1" fill="freeze" /><g transform="translate(0,280.325)"><animateTransform repeatCount="indefinite" type="translate" attributeName="transform" dur="3.017s" begin="0s" calcMode="spline" values="0 280.325; 0 378.265; 0 378.265" keyTimes="0; 0.541436; 1" keySplines="0.506 0 0.779 1; 0 0 1 1" fill="freeze" /><g transform="scale(0,0)"><animateTransform repeatCount="indefinite" type="scale" attributeName="transform" dur="3.017s" begin="0s" calcMode="spline" values="0 0; 0.7 0.7; 0 0; 0 0" keyTimes="0; 0.331492; 0.607735; 1" keySplines="0.124 0 0.649 1; 0.853 0 0.988 1; 0 0 1 1" fill="freeze" /><g transform="translate(-78,-90)"><g transform="matrix(1,0,0,1,79,90)"><path fill="url(#i17)" d="M-6.69,-85.362C-4.604,-91.546,4.141,-91.546,6.227,-85.362C6.227,-85.362,22.991,-35.658,22.991,-35.658C24.148,-32.227,26.622,-29.398,29.868,-27.793C29.868,-27.793,73.74,-6.11,73.74,-6.11C78.802,-3.609,78.802,3.609,73.74,6.111C73.74,6.111,29.868,27.794,29.868,27.794C26.622,29.398,24.148,32.227,22.991,35.658C22.991,35.658,6.227,85.362,6.227,85.362C4.141,91.546,-4.604,91.546,-6.69,85.362C-6.69,85.362,-23.454,35.658,-23.454,35.658C-24.611,32.227,-27.085,29.398,-30.331,27.794C-30.331,27.794,-74.204,6.111,-74.204,6.111C-79.265,3.609,-79.265,-3.609,-74.204,-6.11C-74.204,-6.11,-30.331,-27.793,-30.331,-27.793C-27.085,-29.398,-24.611,-32.227,-23.454,-35.658C-23.454,-35.658,-6.69,-85.362,-6.69,-85.362Z" /></g></g></g></g></g></g></g><g opacity="0" visibility="visible"><animate repeatCount="indefinite" begin="0s" calcMode="discrete" dur="3.017s" values="visible; hidden; hidden" keyTimes="0; 0.35904; 1" attributeName="visibility" /><animate repeatCount="indefinite" attributeName="opacity" dur="3.017s" begin="0s" fill="freeze" values="0; 0.7; 0.7; 0.01; 0.01" keyTimes="0; 0.055249; 0.569061; 0.607735; 1" keySplines="0 0 1 1; 0 0 1 1; 0 0 1 1; 0 0 1 1" calcMode="spline" /><g><g transform="translate(222.23,0)"><animateTransform repeatCount="indefinite" type="translate" attributeName="transform" dur="3.017s" begin="0s" calcMode="spline" values="222.23 0; 347.517 0; 347.517 0" keyTimes="0; 0.519337; 1" keySplines="0.363 0 0.554 1; 0 0 1 1" fill="freeze" /><g transform="translate(0,176.825)"><animateTransform repeatCount="indefinite" type="translate" attributeName="transform" dur="3.017s" begin="0s" calcMode="spline" values="0 176.825; 0 324.452; 0 324.452" keyTimes="0; 0.519337; 1" keySplines="0.355 0 0.576 1; 0 0 1 1" fill="freeze" /><g transform="scale(0,0)"><animateTransform repeatCount="indefinite" type="scale" attributeName="transform" dur="3.017s" begin="0s" calcMode="spline" values="0 0; 0.7 0.7; 0 0; 0 0" keyTimes="0; 0.331492; 0.607735; 1" keySplines="0.01 0 0.271 1; 0.507 0 0.976 1; 0 0 1 1" fill="freeze" /><g transform="translate(-78,-90)"><g transform="matrix(1,0,0,1,79,90)"><path fill="url(#i18)" d="M-6.69,-85.362C-4.604,-91.546,4.141,-91.546,6.227,-85.362C6.227,-85.362,22.991,-35.658,22.991,-35.658C24.148,-32.227,26.622,-29.398,29.868,-27.793C29.868,-27.793,73.74,-6.11,73.74,-6.11C78.802,-3.609,78.802,3.609,73.74,6.111C73.74,6.111,29.868,27.794,29.868,27.794C26.622,29.398,24.148,32.227,22.991,35.658C22.991,35.658,6.227,85.362,6.227,85.362C4.141,91.546,-4.604,91.546,-6.69,85.362C-6.69,85.362,-23.454,35.658,-23.454,35.658C-24.611,32.227,-27.085,29.398,-30.331,27.794C-30.331,27.794,-74.204,6.111,-74.204,6.111C-79.265,3.609,-79.265,-3.609,-74.204,-6.11C-74.204,-6.11,-30.331,-27.793,-30.331,-27.793C-27.085,-29.398,-24.611,-32.227,-23.454,-35.658C-23.454,-35.658,-6.69,-85.362,-6.69,-85.362Z" /></g></g></g></g></g></g></g></g></g></svg>