<svg fill="none" height="100%" width="100%" viewBox="0 0 500 500" xmlns:xlink="http://www.w3.org/1999/xlink" xmlns="http://www.w3.org/2000/svg"><defs><clipPath id="i0"><rect height="500" width="500" y="0" x="0" /></clipPath><g id="i1"><g id="i2"><g transform="translate(173.416,173.447)"><animateTransform repeatCount="indefinite" type="translate" attributeName="transform" dur="2.5s" begin="0s" calcMode="spline" values="173.416 173.447; 173.416 173.447; 211.666 211.697; 173.416 173.447; 173.416 173.447" keyTimes="0; 0.24; 0.44; 0.64; 1" keySplines="0 0 1 1; 0.333 0 0.667 1; 0.333 0 0.667 1; 0 0 1 1" fill="freeze" /><g transform="scale(1,1) translate(-173.416,-173.447)"><g id="i3" transform="matrix(1,0,0,1,0,0)"><g id="i3" transform="matrix(1,0,0,1,173.416,188.031)"><path stroke-linejoin="round" stroke-linecap="round" stroke-width="12" stroke="#fab9f0" d="M-9.446,0C-9.446,0,9.446,0,9.446,0" /></g><g id="i4" transform="matrix(1,0,0,1,173.416,164.863)"><path fill="#fab9f0" d="M6,0C6,3.314,3.314,6,0,6C-3.314,6,-6,3.314,-6,0C-6,-3.314,-3.314,-6,0,-6C3.314,-6,6,-3.314,6,0Z" /></g></g><g id="i4" transform="matrix(1,0,0,1,173.416,173.447)"><path stroke-linejoin="round" stroke-linecap="round" stroke-width="12" stroke="#e14eca" d="M-27.659,-44.55C-27.659,-44.55,27.659,-44.55,27.659,-44.55C36.988,-44.55,44.55,-36.988,44.55,-27.659C44.55,-27.659,44.55,44.55,44.55,44.55C44.55,44.55,-27.659,44.55,-27.659,44.55C-36.988,44.55,-44.55,36.988,-44.55,27.659C-44.55,27.659,-44.55,-27.659,-44.55,-27.659C-44.55,-36.988,-36.988,-44.55,-27.659,-44.55Z" /></g></g></g></g><g id="i5"><g transform="translate(326.584,173.447)"><animateTransform repeatCount="indefinite" type="translate" attributeName="transform" dur="2.5s" begin="0s" calcMode="spline" values="326.584 173.447; 326.584 173.447; 288.584 211.447; 326.584 173.447; 326.584 173.447" keyTimes="0; 0.293333; 0.493333; 0.693333; 1" keySplines="0 0 1 1; 0.333 0 0.667 1; 0.333 0 0.667 1; 0 0 1 1" fill="freeze" /><g transform="scale(1,1) translate(-326.584,-173.447)"><g id="i6" transform="matrix(1,0,0,1,326.584,188.031)"><path stroke-linejoin="round" stroke-linecap="round" stroke-width="12" stroke="#e14eca" d="M-9.446,0C-9.446,0,9.446,0,9.446,0" /></g><g id="i3" transform="matrix(1,0,0,1,326.584,164.863)"><path fill="#e14eca" d="M6,0C6,3.314,3.314,6,0,6C-3.314,6,-6,3.314,-6,0C-6,-3.314,-3.314,-6,0,-6C3.314,-6,6,-3.314,6,0Z" /></g><g id="i4" transform="matrix(1,0,0,1,326.584,173.447)"><path stroke-linejoin="round" stroke-linecap="round" stroke-width="12" stroke="#fab9f0" d="M-27.659,-44.55C-27.659,-44.55,27.659,-44.55,27.659,-44.55C36.988,-44.55,44.55,-36.988,44.55,-27.659C44.55,-27.659,44.55,27.659,44.55,27.659C44.55,36.988,36.988,44.55,27.659,44.55C27.659,44.55,-44.55,44.55,-44.55,44.55C-44.55,44.55,-44.55,-27.659,-44.55,-27.659C-44.55,-36.988,-36.988,-44.55,-27.659,-44.55Z" /></g></g></g></g><g id="i7"><g transform="translate(326.584,326.453)"><animateTransform repeatCount="indefinite" type="translate" attributeName="transform" dur="2.5s" begin="0s" calcMode="spline" values="326.584 326.453; 326.584 326.453; 288.584 288.453; 326.584 326.453; 326.584 326.453" keyTimes="0; 0.346667; 0.546667; 0.746667; 1" keySplines="0 0 1 1; 0.333 0 0.667 1; 0.333 0 0.667 1; 0 0 1 1" fill="freeze" /><g transform="scale(1,1) translate(-326.584,-326.453)"><g id="i3" transform="matrix(1,0,0,1,0,0)"><g id="i3" transform="matrix(1,0,0,1,326.584,341.037)"><path stroke-linejoin="round" stroke-linecap="round" stroke-width="12" stroke="#fab9f0" d="M-9.446,0C-9.446,0,9.446,0,9.446,0" /></g><g id="i4" transform="matrix(1,0,0,1,326.584,317.869)"><path fill="#fab9f0" d="M6,0C6,3.314,3.314,6,0,6C-3.314,6,-6,3.314,-6,0C-6,-3.314,-3.314,-6,0,-6C3.314,-6,6,-3.314,6,0Z" /></g></g><g id="i4" transform="matrix(1,0,0,1,326.584,326.453)"><path stroke-linejoin="round" stroke-linecap="round" stroke-width="12" stroke="#e14eca" d="M-44.55,-44.55C-44.55,-44.55,27.659,-44.55,27.659,-44.55C36.988,-44.55,44.55,-36.988,44.55,-27.659C44.55,-27.659,44.55,27.659,44.55,27.659C44.55,36.988,36.988,44.55,27.659,44.55C27.659,44.55,-27.659,44.55,-27.659,44.55C-36.988,44.55,-44.55,36.988,-44.55,27.659C-44.55,27.659,-44.55,-44.55,-44.55,-44.55Z" /></g></g></g></g><g id="i8"><g transform="translate(173.466,326.553)"><animateTransform repeatCount="indefinite" type="translate" attributeName="transform" dur="2.5s" begin="0s" calcMode="spline" values="173.466 326.553; 173.466 326.553; 211.466 288.553; 173.466 326.553; 173.466 326.553" keyTimes="0; 0.4; 0.6; 0.8; 1" keySplines="0 0 1 1; 0.333 0 0.667 1; 0.333 0 0.667 1; 0 0 1 1" fill="freeze" /><g transform="scale(1,1) translate(-173.466,-326.553)"><g id="i6" transform="matrix(1,0,0,1,173.466,341.137)"><path stroke-linejoin="round" stroke-linecap="round" stroke-width="12" stroke="#e14eca" d="M-9.446,0C-9.446,0,9.446,0,9.446,0" /></g><g id="i3" transform="matrix(1,0,0,1,173.466,317.969)"><path fill="#e14eca" d="M6,0C6,3.314,3.314,6,0,6C-3.314,6,-6,3.314,-6,0C-6,-3.314,-3.314,-6,0,-6C3.314,-6,6,-3.314,6,0Z" /></g><g id="i4" transform="matrix(1,0,0,1,173.466,326.553)"><path stroke-linejoin="round" stroke-linecap="round" stroke-width="12" stroke="#fab9f0" d="M-27.659,-44.55C-27.659,-44.55,44.55,-44.55,44.55,-44.55C44.55,-44.55,44.55,27.659,44.55,27.659C44.55,36.988,36.988,44.55,27.659,44.55C27.659,44.55,-27.659,44.55,-27.659,44.55C-36.988,44.55,-44.55,36.988,-44.55,27.659C-44.55,27.659,-44.55,-27.659,-44.55,-27.659C-44.55,-36.988,-36.988,-44.55,-27.659,-44.55Z" /></g></g></g></g></g><mask id="i9"><rect fill="white" height="100%" width="100%" /><path fill="black" d="M215.125,218.75C215.125,218.75,205.125,250,205.125,250C205.125,250,217.125,284.5,217.125,284.5C217.125,284.5,250.25,296,250.25,296C250.25,296,284.875,281.5,284.875,281.5C284.875,281.5,295.375,250.25,295.375,250.25C295.375,250.25,283.125,217.25,283.125,217.25C283.125,217.25,250.75,205,250.75,205C250.75,205,215.125,218.75,215.125,218.75Z" /></mask></defs><g transform="matrix(1,0,0,1,0,0)" id="i10"><g mask="url(#i9)" id="i11"><g clip-path="url(#i0)"><g><g transform="translate(173.416,173.447)"><animateTransform repeatCount="indefinite" type="translate" attributeName="transform" dur="2.5s" begin="0s" calcMode="spline" values="173.416 173.447; 173.416 173.447; 211.666 211.697; 173.416 173.447; 173.416 173.447" keyTimes="0; 0.24; 0.44; 0.64; 1" keySplines="0 0 1 1; 0.333 0 0.667 1; 0.333 0 0.667 1; 0 0 1 1" fill="freeze" /><g transform="scale(1,1) translate(-173.416,-173.447)"><g transform="matrix(1,0,0,1,0,0)"><g transform="matrix(1,0,0,1,173.416,188.031)"><path stroke-linejoin="round" stroke-linecap="round" stroke-width="12" stroke="#fab9f0" d="M-9.446,0C-9.446,0,9.446,0,9.446,0" /></g><g transform="matrix(1,0,0,1,173.416,164.863)"><path fill="#fab9f0" d="M6,0C6,3.314,3.314,6,0,6C-3.314,6,-6,3.314,-6,0C-6,-3.314,-3.314,-6,0,-6C3.314,-6,6,-3.314,6,0Z" /></g></g><g transform="matrix(1,0,0,1,173.416,173.447)"><path stroke-linejoin="round" stroke-linecap="round" stroke-width="12" stroke="#e14eca" d="M-27.659,-44.55C-27.659,-44.55,27.659,-44.55,27.659,-44.55C36.988,-44.55,44.55,-36.988,44.55,-27.659C44.55,-27.659,44.55,44.55,44.55,44.55C44.55,44.55,-27.659,44.55,-27.659,44.55C-36.988,44.55,-44.55,36.988,-44.55,27.659C-44.55,27.659,-44.55,-27.659,-44.55,-27.659C-44.55,-36.988,-36.988,-44.55,-27.659,-44.55Z" /></g></g></g></g><g><g transform="translate(326.584,173.447)"><animateTransform repeatCount="indefinite" type="translate" attributeName="transform" dur="2.5s" begin="0s" calcMode="spline" values="326.584 173.447; 326.584 173.447; 288.584 211.447; 326.584 173.447; 326.584 173.447" keyTimes="0; 0.293333; 0.493333; 0.693333; 1" keySplines="0 0 1 1; 0.333 0 0.667 1; 0.333 0 0.667 1; 0 0 1 1" fill="freeze" /><g transform="scale(1,1) translate(-326.584,-173.447)"><g transform="matrix(1,0,0,1,326.584,188.031)"><path stroke-linejoin="round" stroke-linecap="round" stroke-width="12" stroke="#e14eca" d="M-9.446,0C-9.446,0,9.446,0,9.446,0" /></g><g transform="matrix(1,0,0,1,326.584,164.863)"><path fill="#e14eca" d="M6,0C6,3.314,3.314,6,0,6C-3.314,6,-6,3.314,-6,0C-6,-3.314,-3.314,-6,0,-6C3.314,-6,6,-3.314,6,0Z" /></g><g transform="matrix(1,0,0,1,326.584,173.447)"><path stroke-linejoin="round" stroke-linecap="round" stroke-width="12" stroke="#fab9f0" d="M-27.659,-44.55C-27.659,-44.55,27.659,-44.55,27.659,-44.55C36.988,-44.55,44.55,-36.988,44.55,-27.659C44.55,-27.659,44.55,27.659,44.55,27.659C44.55,36.988,36.988,44.55,27.659,44.55C27.659,44.55,-44.55,44.55,-44.55,44.55C-44.55,44.55,-44.55,-27.659,-44.55,-27.659C-44.55,-36.988,-36.988,-44.55,-27.659,-44.55Z" /></g></g></g></g><g><g transform="translate(326.584,326.453)"><animateTransform repeatCount="indefinite" type="translate" attributeName="transform" dur="2.5s" begin="0s" calcMode="spline" values="326.584 326.453; 326.584 326.453; 288.584 288.453; 326.584 326.453; 326.584 326.453" keyTimes="0; 0.346667; 0.546667; 0.746667; 1" keySplines="0 0 1 1; 0.333 0 0.667 1; 0.333 0 0.667 1; 0 0 1 1" fill="freeze" /><g transform="scale(1,1) translate(-326.584,-326.453)"><g transform="matrix(1,0,0,1,0,0)"><g transform="matrix(1,0,0,1,326.584,341.037)"><path stroke-linejoin="round" stroke-linecap="round" stroke-width="12" stroke="#fab9f0" d="M-9.446,0C-9.446,0,9.446,0,9.446,0" /></g><g transform="matrix(1,0,0,1,326.584,317.869)"><path fill="#fab9f0" d="M6,0C6,3.314,3.314,6,0,6C-3.314,6,-6,3.314,-6,0C-6,-3.314,-3.314,-6,0,-6C3.314,-6,6,-3.314,6,0Z" /></g></g><g transform="matrix(1,0,0,1,326.584,326.453)"><path stroke-linejoin="round" stroke-linecap="round" stroke-width="12" stroke="#e14eca" d="M-44.55,-44.55C-44.55,-44.55,27.659,-44.55,27.659,-44.55C36.988,-44.55,44.55,-36.988,44.55,-27.659C44.55,-27.659,44.55,27.659,44.55,27.659C44.55,36.988,36.988,44.55,27.659,44.55C27.659,44.55,-27.659,44.55,-27.659,44.55C-36.988,44.55,-44.55,36.988,-44.55,27.659C-44.55,27.659,-44.55,-44.55,-44.55,-44.55Z" /></g></g></g></g><g><g transform="translate(173.466,326.553)"><animateTransform repeatCount="indefinite" type="translate" attributeName="transform" dur="2.5s" begin="0s" calcMode="spline" values="173.466 326.553; 173.466 326.553; 211.466 288.553; 173.466 326.553; 173.466 326.553" keyTimes="0; 0.4; 0.6; 0.8; 1" keySplines="0 0 1 1; 0.333 0 0.667 1; 0.333 0 0.667 1; 0 0 1 1" fill="freeze" /><g transform="scale(1,1) translate(-173.466,-326.553)"><g transform="matrix(1,0,0,1,173.466,341.137)"><path stroke-linejoin="round" stroke-linecap="round" stroke-width="12" stroke="#e14eca" d="M-9.446,0C-9.446,0,9.446,0,9.446,0" /></g><g transform="matrix(1,0,0,1,173.466,317.969)"><path fill="#e14eca" d="M6,0C6,3.314,3.314,6,0,6C-3.314,6,-6,3.314,-6,0C-6,-3.314,-3.314,-6,0,-6C3.314,-6,6,-3.314,6,0Z" /></g><g transform="matrix(1,0,0,1,173.466,326.553)"><path stroke-linejoin="round" stroke-linecap="round" stroke-width="12" stroke="#fab9f0" d="M-27.659,-44.55C-27.659,-44.55,44.55,-44.55,44.55,-44.55C44.55,-44.55,44.55,27.659,44.55,27.659C44.55,36.988,36.988,44.55,27.659,44.55C27.659,44.55,-27.659,44.55,-27.659,44.55C-36.988,44.55,-44.55,36.988,-44.55,27.659C-44.55,27.659,-44.55,-27.659,-44.55,-27.659C-44.55,-36.988,-36.988,-44.55,-27.659,-44.55Z" /></g></g></g></g></g></g></g><g transform="matrix(1,0,0,1,0,0)" id="i12"><g id="i3" transform="matrix(1,0,0,1,0,0)"><g id="i3" transform="matrix(1,0,0,1,250.175,262.584)"><path stroke-linejoin="round" stroke-linecap="round" stroke-width="12" stroke="#fab9f0" d="M-9.446,0C-9.446,0,9.446,0,9.446,0" /></g><g id="i4" transform="matrix(1,0,0,1,250.175,239.416)"><path fill="#e14eca" d="M6,0C6,3.314,3.314,6,0,6C-3.314,6,-6,3.314,-6,0C-6,-3.314,-3.314,-6,0,-6C3.314,-6,6,-3.314,6,0Z" /></g></g><g id="i4" transform="matrix(1,0,0,1,250.175,250.109)"><path stroke-linejoin="round" stroke-linecap="round" stroke-width="12" stroke="#fab9f0" d="M45.267,0C45.267,25,25,45.267,0,45.267C-25,45.267,-45.267,25,-45.267,0C-45.267,-25,-25,-45.267,0,-45.267C25,-45.267,45.267,-25,45.267,0Z" /></g></g></svg>